<svg version="1.1" xmlns="http://www.w3.org/2000/svg" xmlns:xlink="http://www.w3.org/1999/xlink" style="enable-background:new 0 0 30 30;" xml:space="preserve" width="22" height="15"><rect id="backgroundrect" width="100%" height="100%" x="0" y="0" fill="none" stroke="none"/>

<g class="currentLayer" style=""><title>Layer 1</title><path d="M-0.0006248950958251953,10.299219131469727 c0,-0.9900000095367432 0.3100000023841858,-1.8799999952316284 0.9300000071525574,-2.6500000953674316 s1.409999966621399,-1.2699999809265137 2.380000114440918,-1.4900000095367432 c0.25999999046325684,-1.1699999570846558 0.8500000238418579,-2.140000104904175 1.7799999713897705,-2.880000114440918 c0.9300000071525574,-0.75 2,-1.1200000047683716 3.2200000286102295,-1.1200000047683716 c1.1799999475479126,0 2.240000009536743,0.36000001430511475 3.1600000858306885,1.090000033378601 c0.9300000071525574,0.7300000190734863 1.5299999713897705,1.659999966621399 1.7999999523162842,2.799999952316284 h0.27000001072883606 c1.1799999475479126,0 2.180000066757202,0.4099999964237213 3.009999990463257,1.2400000095367432 s1.25,1.8300000429153442 1.25,3 c0,1.1799999475479126 -0.41999998688697815,2.180000066757202 -1.25,3.009999990463257 s-1.8300000429153442,1.25 -3.009999990463257,1.25 H4.269374847412109 c-0.5799999833106995,0 -1.1299999952316284,-0.10999999940395355 -1.649999976158142,-0.3400000035762787 S1.6293749809265137,13.69921875 1.2493748664855957,13.319219589233398 c-0.3799999952316284,-0.3799999952316284 -0.6800000071525574,-0.8399999737739563 -0.9100000262260437,-1.3600000143051147 S-0.0006248950958251953,10.869218826293945 -0.0006248950958251953,10.299219131469727 zM1.4493751525878906,10.299219131469727 c0,0.7599999904632568 0.2800000011920929,1.4199999570846558 0.8199999928474426,1.9600000381469727 s1.2100000381469727,0.8199999928474426 1.9900000095367432,0.8199999928474426 h9.279999732971191 c0.7699999809265137,0 1.440000057220459,-0.27000001072883606 1.9900000095367432,-0.8199999928474426 c0.550000011920929,-0.550000011920929 0.8299999833106995,-1.2000000476837158 0.8299999833106995,-1.9600000381469727 c0,-0.7599999904632568 -0.27000001072883606,-1.4199999570846558 -0.8299999833106995,-1.9600000381469727 c-0.550000011920929,-0.5400000214576721 -1.2100000381469727,-0.8199999928474426 -1.9900000095367432,-0.8199999928474426 h-1.3899999856948853 c-0.10000000149011612,0 -0.15000000596046448,-0.05000000074505806 -0.15000000596046448,-0.15000000596046448 l-0.07000000029802322,-0.49000000953674316 c-0.10000000149011612,-0.9399999976158142 -0.5,-1.7300000190734863 -1.190000057220459,-2.3499999046325684 s-1.5099999904632568,-0.9300000071525574 -2.450000047683716,-0.9300000071525574 c-0.9399999976158142,0 -1.7599999904632568,0.3100000023841858 -2.4600000381469727,0.9399999976158142 c-0.699999988079071,0.6200000047683716 -1.090000033378601,1.409999966621399 -1.1799999475479126,2.3399999141693115 l-0.07000000029802322,0.41999998688697815 c0,0.10000000149011612 -0.05000000074505806,0.15000000596046448 -0.1599999964237213,0.15000000596046448 l-0.44999998807907104,0.07000000029802322 c-0.7200000286102295,0.05999999865889549 -1.3200000524520874,0.36000001430511475 -1.809999942779541,0.8899999856948853 C1.6993751525878906,8.939218521118164 1.4493751525878906,9.569219589233398 1.4493751525878906,10.299219131469727 zM10.2993745803833,1.579218864440918 c-0.10000000149011612,0.09000000357627869 -0.07999999821186066,0.1599999964237213 0.07000000029802322,0.20999999344348907 c0.4300000071525574,0.1899999976158142 0.7900000214576721,0.3700000047683716 1.0800000429153442,0.550000011920929 c0.10999999940395355,0.029999999329447746 0.1899999976158142,0.019999999552965164 0.2199999988079071,-0.029999999329447746 c0.6100000143051147,-0.5699999928474426 1.309999942779541,-0.8600000143051147 2.119999885559082,-0.8600000143051147 c0.8100000023841858,0 1.5,0.27000001072883606 2.0999999046325684,0.8100000023841858 c0.5899999737739563,0.5400000214576721 0.9200000166893005,1.2100000381469727 0.9900000095367432,2 l0.09000000357627869,0.6399999856948853 h1.4199999570846558 c0.6499999761581421,0 1.2100000381469727,0.23000000417232513 1.6799999475479126,0.699999988079071 c0.4699999988079071,0.4699999988079071 0.699999988079071,1.0199999809265137 0.699999988079071,1.659999966621399 c0,0.6000000238418579 -0.20999999344348907,1.1200000047683716 -0.6200000047683716,1.5700000524520874 s-0.9200000166893005,0.699999988079071 -1.5299999713897705,0.7699999809265137 c-0.10000000149011612,0 -0.15000000596046448,0.05000000074505806 -0.15000000596046448,0.1599999964237213 v1.1299999952316284 c0,0.10999999940395355 0.05000000074505806,0.1599999964237213 0.15000000596046448,0.1599999964237213 c1.0099999904632568,-0.05999999865889549 1.8600000143051147,-0.46000000834465027 2.549999952316284,-1.190000057220459 s1.0399999618530273,-1.600000023841858 1.0399999618530273,-2.5999999046325684 c0,-1.059999942779541 -0.3700000047683716,-1.9600000381469727 -1.1200000047683716,-2.700000047683716 c-0.75,-0.75 -1.649999976158142,-1.1200000047683716 -2.700000047683716,-1.1200000047683716 h-0.15000000596046448 c-0.25999999046325684,-1 -0.8100000023841858,-1.8200000524520874 -1.649999976158142,-2.4700000286102295 c-0.8299999833106995,-0.6499999761581421 -1.7699999809265137,-0.9700000286102295 -2.799999952316284,-0.9700000286102295 C12.389375686645508,-0.010781288146972656 11.219374656677246,0.519218921661377 10.2993745803833,1.579218864440918 z" id="svg_1" class="selected" fill="#04b8b8" fill-opacity="1"/></g></svg>